<?xml version="1.0" standalone="no"?><!DOCTYPE svg PUBLIC "-//W3C//DTD SVG 1.1//EN" "http://www.w3.org/Graphics/SVG/1.1/DTD/svg11.dtd"><svg t="1596268745333" class="icon" viewBox="0 0 1024 1024" version="1.1" xmlns="http://www.w3.org/2000/svg" p-id="730" xmlns:xlink="http://www.w3.org/1999/xlink" width="220" height="220"><defs><style type="text/css"></style></defs><path d="M14.16085573 512l486.05596971-477.21858845c2.9457933-2.9457933 8.83738127-5.89158797 14.72896786-5.89158797s8.83738127 2.9457933 14.72896923 5.89158797l477.21858844 477.21858845c2.9457933 2.9457933 5.89158797 8.83738127 2.9457933 8.83738127 0 2.9457933-5.89158797 2.9457933-8.83738126 2.94579329h-138.4523056v450.70644466c0 5.89158797-2.9457933 8.83738127-5.89158798 14.72896923s-8.83738127 5.89158797-14.72896923 5.89158797h-197.36818118c-5.89158797 0-8.83738127-2.9457933-14.72896925-5.89158797s-5.89158797-8.83738127-5.89158658-14.72896923v-294.57937513h-235.66350094v294.57937513c0 5.89158797-2.9457933 8.83738127-5.89158797 14.72896923s-8.83738127 5.89158797-14.72896786 5.89158797h-197.36818255c-5.89158797 0-8.83738127-2.9457933-14.72896786-5.89158797s-5.89158797-8.83738127-5.89158798-14.72896923v-450.70644466h-138.45230698c-5.89158797 0-8.83738127 0-8.83738127-2.94579329 8.83738127-2.9457933 8.83738127-5.89158797 11.78317595-8.83738127z" p-id="731"></path></svg>